<?xml version="1.0" encoding="UTF-8" standalone="no"?>
<svg width="180px" height="55px" viewBox="0 0 180 55" version="1.1" xmlns="http://www.w3.org/2000/svg" xmlns:xlink="http://www.w3.org/1999/xlink">
    <!-- Generator: Sketch 45.1 (43504) - http://www.bohemiancoding.com/sketch -->
    <title>Shape</title>
    <desc>Created with Sketch.</desc>
    <defs></defs>
    <g id="Page-1" stroke="none" stroke-width="1" fill="none" fill-rule="evenodd">
        <g id="sign" fill-rule="nonzero" fill="#FFFFFF">
            <path d="M66.58,1.087 C66.873,0.848 66.467,0.691 66.254,0.723 C55.86,2.299 47.902,11.385 40.907,18.469 C30.35,29.16 20.467,41.063 8.36,50.058 C6.924,51.124 1.487,55.783 1.497,51.525 C1.502,49.171 2.903,46.6 3.893,44.57 C5.908,40.436 8.321,36.466 10.982,32.723 C16.214,25.368 25.212,16.845 35.045,18.985 C37.145,19.442 39.459,20.433 41.658,20.158 C43.939,19.872 44.678,18.538 43.406,20.985 C43.207,21.368 43.884,21.268 44.051,21.21 C46.369,20.385 46.989,20.633 48.743,22.192 C48.949,22.376 49.407,22.279 49.58,22.088 C55.096,15.98 59.203,8.773 63.309,1.683 C63.544,1.277 62.571,1.369 62.407,1.652 C58.546,8.309 54.708,15.283 52.095,22.545 C50.997,25.596 52.642,26.527 55.409,26.846 C59.939,27.367 65.108,26.82 69.459,25.53 C71.202,25.013 72.659,24.094 73.87,22.759 C74.363,22.215 74.549,21.607 74.812,20.944 C75.652,18.83 78.209,17.748 80.143,16.831 C82.111,15.897 84.286,15.28 86.159,14.156 C88.305,12.868 90.647,10.966 93.336,11.355 C95.291,11.638 97.405,13.042 99.14,13.909 C107.269,17.97 115.691,21.278 124.337,24.056 C141.975,29.722 160.348,32.791 178.562,35.939 C178.88,35.994 179.704,35.496 179.15,35.4 C155.615,31.333 131.991,27.153 109.801,17.997 C104.737,15.907 99.98,13.085 94.886,11.098 C93.261,10.465 91.833,10.67 90.255,11.23 C86.673,12.5 83.273,14.859 79.755,16.415 C77.423,17.446 75.001,18.687 73.738,20.989 C73.509,21.407 74.478,21.298 74.64,21.02 C74.997,20.407 74.95,20.615 75.006,19.947 C75.04,19.535 74.102,19.736 74.038,20.062 C72.858,26.103 64.976,26.046 60.077,26.339 C58.065,26.459 52.62,27.037 52.703,23.934 C52.773,21.308 54.757,18.335 55.794,16.081 C57.305,12.797 58.951,9.577 60.654,6.389 C60.943,5.862 61.232,5.334 61.522,4.807 C62.773,3.81 62.833,3.164 61.702,2.869 C60.95,4.168 60.189,5.462 59.426,6.755 C57.795,9.515 56.083,12.222 54.293,14.882 C53.035,16.752 49.993,22.504 47.637,19.814 C47.523,19.683 47.266,19.712 47.122,19.753 C44.836,20.408 44.098,21.202 45.641,18.687 C45.891,18.279 45.037,18.428 44.888,18.519 C40.669,21.083 37.024,18.12 32.922,17.963 C30.373,17.866 28.126,18.534 25.746,19.414 C19.68,21.657 14.874,26.551 10.961,31.517 C8.593,34.52 -3.546,50.827 1.808,54.571 C1.993,54.7 2.324,54.579 2.493,54.484 C17.799,45.843 28.403,31.377 40.913,19.419 C47.103,13.502 52.732,7.032 60.469,3.037 C62.172,2.158 66.709,1.054 61.925,3.336 C59.612,4.44 56.982,4.869 54.468,5.188 C49.402,5.83 44.031,5.159 39.24,3.427 C38.938,3.318 38.063,3.756 38.475,3.905 C47.222,7.067 59.045,7.223 66.58,1.087 Z" id="Shape"></path>
        </g>
    </g>
</svg>